<svg width="30" height="28" viewBox="0 0 30 28" fill="none" xmlns="http://www.w3.org/2000/svg">
<path d="M28.8924 16.0372C29.0244 18.2907 27.9833 20.4569 26.1211 21.7799L27.2501 23.9462C27.5874 24.6004 27.6314 25.371 27.3381 26.0543C27.0595 26.7376 26.4876 27.2756 25.7838 27.5082L24.6254 27.8717C24.1431 28.0328 23.6223 28.0424 23.1342 27.8993C22.6462 27.7562 22.2145 27.4673 21.8981 27.072L18.7895 23.4374C17.4845 23.2193 16.2528 22.6668 15.2117 21.8381C14.4785 22.0562 13.7454 22.1725 13.0122 22.1725C11.7218 22.1725 10.4315 21.7799 9.34641 21.0239C8.56926 21.2565 7.77745 21.3583 6.97098 21.3438C5.81259 21.3583 4.66886 21.1257 3.59845 20.6895C2.56813 20.2337 1.68775 19.5 1.05774 18.572C0.42773 17.644 0.0734489 16.5591 0.0353097 15.4411C-0.0819954 14.3943 0.0939624 13.333 0.54852 12.3734C0.123289 11.283 0.0792992 10.0908 0.445878 8.9859C0.988414 7.60472 2.01483 6.45616 3.29053 5.72923C4.14099 3.27219 6.53108 1.62932 9.15579 1.80378C11.5019 -0.377022 15.0944 -0.60964 17.7044 1.26585C18.3203 1.10592 18.9654 1.01869 19.6106 1.01869C21.6048 0.975077 23.4963 1.8474 24.7427 3.40304C27.734 4.17359 29.8748 6.81963 29.9921 9.90183C30.0654 11.5156 29.6255 13.1003 28.7311 14.4524C28.8337 14.9758 28.8924 15.4992 28.8924 16.0372ZM21.5608 13.9872C22.3966 14.089 23.0565 14.7141 23.0565 15.5428C23.0565 15.9284 22.902 16.2982 22.627 16.5709C22.352 16.8435 21.979 16.9967 21.5901 16.9967H20.6664C20.1971 18.3052 19.376 19.4538 18.2909 20.3261C18.6575 20.4569 19.0388 20.5296 19.42 20.6314C26.9422 20.5296 26.0624 15.979 26.0624 15.9063C26.0235 14.9076 25.5861 13.9652 24.8463 13.2863C24.1066 12.6074 23.1252 12.2476 22.118 12.2862C21.7291 12.2862 21.3562 12.133 21.0812 11.8603C20.8062 11.5877 20.6517 11.2179 20.6517 10.8323C20.6517 10.4467 20.8062 10.0769 21.0812 9.80427C21.3562 9.53161 21.7291 9.37844 22.118 9.37844C23.9216 9.42206 25.6518 10.0908 27.0008 11.2685C27.0742 10.8468 27.1181 10.4107 27.1181 9.97453C27.0302 8.17173 26.209 6.60155 22.9098 6.29624C21.0769 1.99278 16.458 4.37713 16.458 5.71469C16.414 6.04908 16.766 6.76148 16.8246 6.80509C17.2135 6.80509 17.5865 6.95827 17.8615 7.23092C18.1364 7.50357 18.2909 7.87337 18.2909 8.25896C18.2909 9.05859 17.6311 9.71283 16.8246 9.71283C16.0475 9.68375 15.3143 9.39298 14.7278 8.89866C14.024 9.34936 13.2175 9.6256 12.3817 9.71283C11.5459 9.78552 10.8567 9.20397 10.8127 8.40435C10.7857 8.21443 10.7981 8.02105 10.8492 7.83606C10.9003 7.65108 10.989 7.4784 11.1098 7.32864C11.2307 7.17887 11.3811 7.05518 11.5519 6.96514C11.7227 6.87511 11.9103 6.82065 12.1031 6.80509C12.3377 6.77601 13.4814 6.60155 13.4814 5.68561C13.4814 4.72606 13.848 3.81012 14.4785 3.08319C13.1295 2.71972 11.6779 3.1995 10.2115 4.95868C7.51352 4.53706 6.41378 4.90052 5.60731 7.73557C4.21431 8.41889 3.48115 8.89866 3.15856 10.3525C4.74218 10.0327 6.36979 10.1635 7.88009 10.716C8.61325 10.9922 9.02382 11.8064 8.74522 12.5915C8.46662 13.3475 7.61616 13.7255 6.85367 13.4493C5.78326 12.984 4.58089 12.955 3.48115 13.362C3.01193 13.7546 3.01193 14.5688 3.01193 15.2085C3.01193 16.2843 3.55447 17.2875 4.47824 17.869C5.25539 18.2616 6.12052 18.4651 6.98564 18.4506C6.7657 18.0726 6.57507 17.68 6.41378 17.2729C6.29834 16.8994 6.33351 16.496 6.51187 16.1477C6.69023 15.7993 6.9979 15.5331 7.37015 15.4051C7.7424 15.277 8.15024 15.2971 8.50787 15.4611C8.8655 15.6251 9.14507 15.9202 9.28776 16.2843C9.87428 17.9417 11.3699 19.0757 13.1295 19.2647C15.1384 19.163 16.9273 17.9853 17.807 16.168C18.1443 14.1617 19.7719 13.9872 21.5608 13.9872ZM24.4934 24.8476L23.5843 22.9576L22.5432 23.1902L24.0096 25.0075L24.4934 24.8476ZM17.6751 12.3298C17.6878 11.9584 17.5566 11.5962 17.3085 11.3177C17.0603 11.0392 16.714 10.8655 16.3407 10.8323C15.2996 10.7742 14.2879 11.1231 13.5107 11.8064C12.6749 12.6496 12.2351 13.8127 12.279 14.9904C12.279 15.376 12.4335 15.7458 12.7085 16.0184C12.9835 16.2911 13.3565 16.4442 13.7454 16.4442C14.5812 16.4442 15.2117 15.79 15.2117 14.9904C15.2117 14.5978 15.3143 14.2053 15.5489 13.8854C15.7249 13.74 15.9448 13.6674 16.1794 13.6674C16.9859 13.711 17.6751 13.1149 17.6751 12.3298Z" fill="white"/>
</svg>
