<?xml version="1.0" encoding="utf-8"?>
<!-- Generator: Adobe Illustrator 25.4.1, SVG Export Plug-In . SVG Version: 6.00 Build 0)  -->
<svg version="1.1" id="Layer_1" xmlns="http://www.w3.org/2000/svg" xmlns:xlink="http://www.w3.org/1999/xlink" x="0px" y="0px"
	 viewBox="0 0 200 100" style="enable-background:new 0 0 200 100;" xml:space="preserve">
<style type="text/css">
	.st0{fill:#FFFFFF;}
</style>
<g>
	<path class="st0" d="M82.9,85.1L82.9,85.1c-3.3,3.3-8.8,3.3-12.1,0L16.5,30.7c-3.3-3.3-3.3-8.8,0-12.1l0,0c3.3-3.3,8.8-3.3,12.1,0
		l54.4,54.4C86.3,76.3,86.3,81.7,82.9,85.1z"/>
</g>
<g>
	<path class="st0" d="M71.5,84.9L71.5,84.9c-3.3-3.3-3.3-8.8,0-12.1l54.4-54.4c3.3-3.3,8.8-3.3,12.1,0l0,0c3.3,3.3,3.3,8.8,0,12.1
		L83.6,84.9C80.3,88.3,74.8,88.3,71.5,84.9z"/>
</g>
</svg>
