<svg width="22" height="30" viewBox="0 0 22 30" fill="none" xmlns="http://www.w3.org/2000/svg">
<path d="M19.1058 10.2857C20.1905 9.64286 20.9498 8.67857 21.3837 7.5C21.8176 6.32143 21.8176 5.14286 21.4922 3.96429C21.1668 2.78571 20.4075 1.82143 19.4312 1.07143C18.455 0.321429 17.1534 0 15.9602 0H5.9809C4.67925 0 3.48607 0.428571 2.50984 1.07143C1.31666 1.82143 0.66584 2.89286 0.231957 3.96429C-0.0934542 5.14286 -0.0934538 6.42857 0.340428 7.5C0.774311 8.67857 1.5336 9.64286 2.61831 10.2857C1.85902 10.8214 1.09972 11.4643 0.66584 12.3214C0.231958 13.1786 0.0150166 14.0357 0.0150166 15C0.0150166 15.9643 0.231958 16.8214 0.66584 17.6786C1.09972 18.5357 1.75054 19.1786 2.61831 19.7143C1.5336 20.3571 0.774311 21.3214 0.340428 22.5C-0.0934538 23.6786 -0.0934542 24.8571 0.231957 26.0357C0.557369 27.2143 1.31666 28.1786 2.40137 28.9286C3.3776 29.6786 4.67925 30 5.87243 30C7.39101 30 8.9096 29.3571 10.1028 28.3929C11.1875 27.3214 11.8383 25.9286 11.8383 24.4286V19.2857C12.923 20.25 14.3331 20.7857 15.7432 20.7857H15.8517C17.1534 20.7857 18.3465 20.3571 19.3228 19.7143C20.299 18.9643 21.0583 18 21.3837 16.8214C21.7091 15.6429 21.7091 14.4643 21.2752 13.2857C20.9498 11.8929 20.0821 10.9286 19.1058 10.2857ZM11.8383 1.82143H15.8517C16.3941 1.82143 16.9364 1.82143 17.3703 2.03571C17.9127 2.25 18.3465 2.46429 18.6719 2.89286C19.1058 3.21429 19.3228 3.64286 19.5397 4.17857C19.7567 4.71429 19.8651 5.14286 19.8651 5.67857C19.8651 6.21429 19.7567 6.75 19.5397 7.17857C19.3228 7.60714 18.9974 8.03571 18.6719 8.46428C18.2381 8.78571 17.8042 9.10714 17.3703 9.32143C16.8279 9.53571 16.2856 9.53571 15.8517 9.53571H11.8383V1.82143ZM5.87243 1.82143H9.88584V9.32143H5.87243C4.89619 9.32143 3.91996 8.89286 3.26913 8.14286C2.50984 7.5 2.18443 6.53571 2.18443 5.57143C2.18443 4.60714 2.61831 3.64286 3.26913 3C3.91996 2.35714 4.89619 1.92857 5.87243 1.82143ZM1.96749 15C1.96749 14.0357 2.40137 13.0714 3.16066 12.3214C3.91996 11.5714 4.89619 11.25 5.9809 11.25H9.99431V18.75H5.9809C4.89619 18.75 3.91996 18.3214 3.16066 17.6786C2.40137 16.9286 1.96749 15.9643 1.96749 15ZM9.88584 24.3214C9.88584 25.3929 9.45195 26.3571 8.69266 27C7.93337 27.75 6.95713 28.0714 5.87243 28.0714C5.33007 28.0714 4.78772 28.0714 4.35384 27.8571C3.81149 27.6429 3.3776 27.4286 3.05219 27.1071C2.61831 26.7857 2.40137 26.3571 2.18443 25.8214C1.96749 25.3929 1.85902 24.8571 1.85902 24.3214C1.85902 23.7857 1.96749 23.25 2.18443 22.8214C2.40137 22.3929 2.72678 21.9643 3.05219 21.5357C3.48607 21.2143 3.91996 20.8929 4.35384 20.6786C4.89619 20.4643 5.43854 20.4643 5.87243 20.4643H9.88584V24.3214ZM15.8517 18.75H15.7432C14.767 18.75 13.7908 18.3214 13.14 17.5714C12.4891 16.8214 12.0552 15.9643 12.0552 15C12.0552 14.0357 12.4891 13.0714 13.14 12.4286C13.7908 11.6786 14.767 11.3571 15.7432 11.25H15.8517C16.3941 11.25 16.9364 11.25 17.3703 11.4643C17.9127 11.6786 18.3465 11.8929 18.6719 12.3214C19.1058 12.6429 19.3228 13.0714 19.5397 13.6071C19.7567 14.0357 19.8651 14.5714 19.8651 15.1071C19.8651 15.6429 19.7567 16.1786 19.5397 16.6071C19.3228 17.0357 18.9974 17.4643 18.6719 17.8929C18.2381 18.2143 17.8042 18.5357 17.3703 18.75H15.8517Z" fill="white"/>
</svg>
