<svg width="34" height="22" viewBox="0 0 34 22" fill="none" xmlns="http://www.w3.org/2000/svg">
<path d="M8 20C11.3137 20 14 17.3137 14 14C14 10.6863 11.3137 8 8 8C4.68629 8 2 10.6863 2 14C2 17.3137 4.68629 20 8 20Z" stroke="white" stroke-width="3" stroke-linecap="round" stroke-linejoin="round"/>
<path d="M26 20C29.3137 20 32 17.3137 32 14C32 10.6863 29.3137 8 26 8C22.6863 8 20 10.6863 20 14C20 17.3137 22.6863 20 26 20Z" stroke="white" stroke-width="3" stroke-linecap="round" stroke-linejoin="round"/>
<path d="M14 14L14.3165 13.841C15.1497 13.4244 16.0684 13.2075 17 13.2075C17.9316 13.2075 18.8503 13.4244 19.6835 13.841L20 14M27.5 2L31.757 11.9345C31.9172 12.308 31.9999 12.7101 32 13.1165V14M6.5 2L2.243 11.9345C2.08298 12.3075 2.00031 12.7091 2 13.115V14" stroke="white" stroke-width="3" stroke-linecap="round" stroke-linejoin="round"/>
</svg>
