<svg width="49" height="31" viewBox="0 0 49 31" fill="none" xmlns="http://www.w3.org/2000/svg">
<path fill-rule="evenodd" clip-rule="evenodd" d="M49 15.5C49 15.0433 48.8156 14.6053 48.4875 14.2824C48.1593 13.9594 47.7142 13.778 47.2501 13.778H5.97725L16.991 2.94332C17.1537 2.78322 17.2828 2.59315 17.3709 2.38396C17.4589 2.17478 17.5042 1.95058 17.5042 1.72416C17.5042 1.49774 17.4589 1.27353 17.3709 1.06435C17.2828 0.855166 17.1537 0.665096 16.991 0.504993C16.8283 0.34489 16.6352 0.217891 16.4226 0.131244C16.21 0.0445967 15.9822 0 15.7521 0C15.522 0 15.2942 0.0445967 15.0816 0.131244C14.869 0.217891 14.6759 0.34489 14.5132 0.504993L0.514095 14.2808C0.351135 14.4408 0.221843 14.6308 0.133626 14.84C0.0454089 15.0492 0 15.2735 0 15.5C0 15.7265 0.0454089 15.9508 0.133626 16.16C0.221843 16.3692 0.351135 16.5592 0.514095 16.7192L14.5132 30.495C14.6759 30.6551 14.869 30.7821 15.0816 30.8688C15.2942 30.9554 15.522 31 15.7521 31C15.9822 31 16.21 30.9554 16.4226 30.8688C16.6352 30.7821 16.8283 30.6551 16.991 30.495C17.1537 30.3349 17.2828 30.1448 17.3709 29.9357C17.4589 29.7265 17.5042 29.5023 17.5042 29.2758C17.5042 29.0494 17.4589 28.8252 17.3709 28.616C17.2828 28.4069 17.1537 28.2168 16.991 28.0567L5.97725 17.222H47.2501C47.7142 17.222 48.1593 17.0406 48.4875 16.7176C48.8156 16.3947 49 15.9567 49 15.5Z" fill="#1B5881"/>
</svg>
