<svg width="28" height="27" viewBox="0 0 28 27" fill="none" xmlns="http://www.w3.org/2000/svg">
<path d="M11.6226 18.3625C11.3148 17.6019 10.7529 16.9722 10.0329 16.5813C9.31301 16.1904 8.47992 16.0626 7.67635 16.2199C6.87278 16.3771 6.14873 16.8095 5.62823 17.4431C5.10773 18.0767 4.82315 18.872 4.82325 19.6929C4.82325 20.0562 4.74881 20.4157 4.60454 20.7491C4.46027 21.0824 4.24925 21.3825 3.98456 21.6308C3.71987 21.879 3.40714 22.0701 3.06577 22.1922C2.72439 22.3143 2.36164 22.3648 2 22.3405C2.58164 23.3535 3.4806 24.1457 4.5573 24.5941C5.63401 25.0424 6.82823 25.1218 7.95458 24.82C9.08093 24.5182 10.0764 23.8521 10.7864 22.925C11.4965 21.9979 11.8814 20.8617 11.8814 19.6929C11.8814 19.2223 11.7896 18.7729 11.6226 18.3625ZM11.6226 18.3625C13.0213 17.8847 14.359 17.2435 15.6081 16.452M9.67571 16.4225C10.1524 15.0172 10.7928 13.6733 11.5838 12.4185M15.6069 16.452C17.8377 15.0389 19.747 13.1713 21.211 10.9703L25.7706 4.11345C25.9452 3.8523 26.0241 3.53845 25.9936 3.2255C25.9631 2.91256 25.8252 2.61993 25.6034 2.39759C25.3817 2.17525 25.0898 2.03699 24.7776 2.00643C24.4655 1.97587 24.1524 2.05489 23.8919 2.23001L17.0526 6.8024C14.857 8.26969 12.9937 10.1836 11.5838 12.4197C13.374 13.2222 14.8064 14.6583 15.6069 16.4531" stroke="white" stroke-width="3" stroke-linecap="round" stroke-linejoin="round"/>
</svg>
