<svg width="82" height="97" viewBox="0 0 82 97" fill="none" xmlns="http://www.w3.org/2000/svg">
<path d="M61.3065 70.424L63.6105 68.76C66.5118 67.0533 68.5598 66.2 69.7545 66.2C72.3998 66.2 75.2585 68.5893 78.3305 73.368C80.2078 76.3547 81.1465 78.744 81.1465 80.536C81.1465 82.328 80.5492 83.8213 79.3545 85.016C78.2452 86.2107 76.9225 87.2773 75.3865 88.216C73.8505 89.1547 72.3572 90.0507 70.9065 90.904C69.5412 91.7573 66.6825 92.8667 62.3305 94.232C57.9785 95.5973 53.7545 96.28 49.6585 96.28C45.6478 96.28 41.5518 95.768 37.3705 94.744C33.2745 93.6347 29.0078 91.8427 24.5705 89.368C20.2185 86.808 16.2932 83.736 12.7945 80.152C9.29583 76.4827 6.3945 71.832 4.0905 66.2C1.87183 60.4827 0.7625 54.296 0.7625 47.64C0.7625 40.984 1.87183 34.968 4.0905 29.592C6.30917 24.1307 9.12517 19.6507 12.5385 16.152C16.0372 12.568 20.0052 9.58133 24.4425 7.19199C32.8052 2.584 41.2105 0.279999 49.6585 0.279999C53.6692 0.279999 57.7225 0.919998 61.8185 2.2C65.9998 3.39466 69.1572 4.632 71.2905 5.91199L74.3625 7.70399C75.8985 8.64266 77.0932 9.41066 77.9465 10.008C80.1652 11.8 81.2745 13.848 81.2745 16.152C81.2745 18.3707 80.3785 20.7173 78.5865 23.192C75.2585 27.8 72.2718 30.104 69.6265 30.104C68.0905 30.104 65.9145 29.1653 63.0985 27.288C59.5145 24.3867 54.7358 22.936 48.7625 22.936C43.2158 22.936 37.7545 24.856 32.3785 28.696C29.8185 30.5733 27.6852 33.2187 25.9785 36.632C24.2718 40.0453 23.4185 43.928 23.4185 48.28C23.4185 52.5467 24.2718 56.3867 25.9785 59.8C27.6852 63.2133 29.8612 65.9013 32.5065 67.864C37.7118 71.6187 43.1305 73.496 48.7625 73.496C51.4078 73.496 53.8825 73.1547 56.1865 72.472C58.5758 71.7893 60.2825 71.1067 61.3065 70.424Z" fill="#F5789D"/>
</svg>
