<svg width="26" height="20" viewBox="0 0 26 20" fill="none" xmlns="http://www.w3.org/2000/svg">
<path d="M23.0116 0.517528C23.1729 0.353672 23.3655 0.223501 23.5779 0.134637C23.7904 0.0457723 24.0186 0 24.249 0C24.4795 0 24.7076 0.0457723 24.9201 0.134637C25.1326 0.223501 25.3251 0.353672 25.4864 0.517528C26.1624 1.19758 26.1719 2.29648 25.51 2.98829L11.5336 19.4365C11.3749 19.61 11.1823 19.7494 10.9677 19.8462C10.753 19.9431 10.5207 19.9953 10.2851 19.9997C10.0495 20.0041 9.8154 19.9606 9.59723 19.8719C9.37906 19.7831 9.18137 19.651 9.01626 19.4836L0.511719 10.9041C0.183727 10.5711 0 10.1234 0 9.65699C0 9.19062 0.183727 8.74284 0.511719 8.40985C0.673031 8.24599 0.865559 8.11582 1.07803 8.02696C1.2905 7.93809 1.51865 7.89232 1.74911 7.89232C1.97957 7.89232 2.20771 7.93809 2.42019 8.02696C2.63266 8.11582 2.82518 8.24599 2.9865 8.40985L10.2005 15.688L22.9644 0.569297C22.9791 0.551111 22.9948 0.533824 23.0116 0.517528Z" fill="white"/>
</svg>
