<svg width="30" height="30" viewBox="0 0 30 30" fill="none" xmlns="http://www.w3.org/2000/svg">
<path d="M10.3556 28C10.3556 28 9.31118 23.84 11.4001 21.76C11.4001 21.76 7.22227 21.76 4.08891 18.64C0.955546 15.52 2 9.28 4.08891 7.2C3.04445 4.08 5.13336 2 5.13336 2C5.13336 2 8.26672 2 10.3556 4.08C12.4445 3.04 17.6668 3.04 19.7557 4.08C21.8446 2 24.978 2 24.978 2C24.978 2 27.0669 4.08 26.0224 7.2C28.1113 9.28 29.1558 15.52 26.0224 18.64C22.8891 21.76 18.7113 21.76 18.7113 21.76C20.8002 23.84 19.7557 28 19.7557 28M9.31118 26.96C6.17782 28 3.04445 25.92 2 24.88" stroke="white" stroke-width="3" stroke-linecap="round" stroke-linejoin="round"/>
</svg>
