<svg width="49" height="31" viewBox="0 0 49 31" fill="none" xmlns="http://www.w3.org/2000/svg">
<path fill-rule="evenodd" clip-rule="evenodd" d="M0 15.5C0 15.0433 0.184361 14.6053 0.512527 14.2824C0.840698 13.9594 1.28579 13.778 1.74989 13.778H43.0228L32.009 2.94332C31.8463 2.78322 31.7172 2.59315 31.6291 2.38396C31.5411 2.17478 31.4958 1.95058 31.4958 1.72416C31.4958 1.49774 31.5411 1.27353 31.6291 1.06435C31.7172 0.855166 31.8463 0.665096 32.009 0.504993C32.1717 0.34489 32.3648 0.217891 32.5774 0.131244C32.79 0.0445967 33.0178 0 33.2479 0C33.478 0 33.7058 0.0445967 33.9184 0.131244C34.131 0.217891 34.3241 0.34489 34.4868 0.504993L48.4859 14.2808C48.6489 14.4408 48.7782 14.6308 48.8664 14.84C48.9546 15.0492 49 15.2735 49 15.5C49 15.7265 48.9546 15.9508 48.8664 16.16C48.7782 16.3692 48.6489 16.5592 48.4859 16.7192L34.4868 30.495C34.3241 30.6551 34.131 30.7821 33.9184 30.8688C33.7058 30.9554 33.478 31 33.2479 31C33.0178 31 32.79 30.9554 32.5774 30.8688C32.3648 30.7821 32.1717 30.6551 32.009 30.495C31.8463 30.3349 31.7172 30.1448 31.6291 29.9357C31.5411 29.7265 31.4958 29.5023 31.4958 29.2758C31.4958 29.0494 31.5411 28.8252 31.6291 28.616C31.7172 28.4069 31.8463 28.2168 32.009 28.0567L43.0228 17.222H1.74989C1.28579 17.222 0.840698 17.0406 0.512527 16.7176C0.184361 16.3947 0 15.9567 0 15.5Z" fill="#1B5881"/>
</svg>
