<svg width="26" height="26" viewBox="0 0 26 26" fill="none" xmlns="http://www.w3.org/2000/svg">
<path d="M3.59303 25.2221C4.09473 25.7239 4.761 26 5.46974 26C6.17849 26 6.84476 25.7239 7.34645 25.2221L13.1013 19.4662C14.0545 19.7602 15.0464 19.9092 16.0438 19.9082C17.3512 19.9122 18.6463 19.6567 19.8542 19.1565C21.0622 18.6564 22.1589 17.9215 23.0808 16.9944C24.4727 15.6062 25.4214 13.8362 25.807 11.9084C26.1926 9.9806 25.9977 7.98173 25.2469 6.16482L24.4903 4.32228L18.8576 9.95477L16.0425 7.13786L21.6739 1.50537L19.8304 0.74738C18.6276 0.252144 17.3392 -0.00179285 16.0385 9.52766e-06C13.3801 9.52766e-06 10.8809 1.03544 9.00284 2.91515C7.71939 4.19459 6.81058 5.80101 6.37495 7.56026C5.93931 9.31951 5.99346 11.1645 6.53153 12.8951L0.776643 18.6511C0.279332 19.1491 0 19.8242 0 20.5281C0 21.232 0.279332 21.9071 0.776643 22.4052L3.59303 25.2221ZM9.6293 13.5522L9.29218 12.7345C8.74093 11.4022 8.59752 9.9362 8.88011 8.52228C9.1627 7.10837 9.85857 5.81017 10.8796 4.79221C11.6383 4.02839 12.5576 3.44325 13.5708 3.0793C14.5839 2.71534 15.6654 2.58173 16.7366 2.68815L12.2864 7.13919L18.8549 13.7102L23.3078 9.25652C23.4116 10.3286 23.2766 11.4104 22.9124 12.424C22.5482 13.4376 21.9638 14.3579 21.2015 15.1187C19.1442 17.1763 15.9403 17.8095 13.2593 16.7063L12.443 16.3678L5.46974 23.345H5.47107L5.46974 24.6725V23.345L2.65335 20.5281L9.6293 13.5522Z" fill="white"/>
</svg>
